<svg xmlns="http://www.w3.org/2000/svg" version="1.1" xmlns:xlink="http://www.w3.org/1999/xlink" xmlns:svgjs="http://svgjs.com/svgjs" width="1440" height="1000" preserveAspectRatio="none" viewBox="0 0 1440 1000"><g mask="url(&quot;#SvgjsMask1186&quot;)" fill="none"><rect width="1440" height="1000" x="0" y="0" fill="rgba(220, 215, 201, 1)"></rect><g mask="url(&quot;#SvgjsMask1187&quot;)"><path d="M744 1032L744 984L744 936L744 888L744 840L744 792" stroke="rgba(63, 78, 79, 1)" stroke-width="8"></path><path d="M732 792 a12 12 0 1 0 24 0 a12 12 0 1 0 -24 0z" fill="rgba(63, 78, 79, 1)"></path><path d="M744 504L696 456L696 408M696 648L744 600L744 552M696 552L696 504M696 1032L696 984L696 936L696 888L696 840L696 792L696 744L696 696L696 648L696 600L696 552L744 504L744 456" stroke="rgba(63, 78, 79, 1)" stroke-width="8"></path><path d="M732 456 a12 12 0 1 0 24 0 a12 12 0 1 0 -24 0zM684 408 a12 12 0 1 0 24 0 a12 12 0 1 0 -24 0zM732 552 a12 12 0 1 0 24 0 a12 12 0 1 0 -24 0zM684 504 a12 12 0 1 0 24 0 a12 12 0 1 0 -24 0z" fill="rgba(63, 78, 79, 1)"></path><path d="M792 552L840 504M792 840L840 792M792 600L840 552L888 504L888 456L888 408M792 1032L792 984L792 936L792 888L792 840L792 792L792 744L792 696L792 648L792 600L792 552L792 504" stroke="rgba(63, 78, 79, 1)" stroke-width="8"></path><path d="M780 504 a12 12 0 1 0 24 0 a12 12 0 1 0 -24 0zM828 504 a12 12 0 1 0 24 0 a12 12 0 1 0 -24 0zM828 792 a12 12 0 1 0 24 0 a12 12 0 1 0 -24 0zM876 408 a12 12 0 1 0 24 0 a12 12 0 1 0 -24 0z" fill="rgba(63, 78, 79, 1)"></path><path d="M648 360L696 312L744 264L744 216L744 168L744 120M648 1032L648 984L648 936L648 888L648 840L648 792L648 744L648 696L648 648L648 600L648 552L648 504L648 456L648 408L648 360L648 312L648 264" stroke="rgba(162, 123, 92, 1)" stroke-width="8"></path><path d="M636 264 a12 12 0 1 0 24 0 a12 12 0 1 0 -24 0zM732 120 a12 12 0 1 0 24 0 a12 12 0 1 0 -24 0z" fill="rgba(162, 123, 92, 1)"></path><path d="M600 504L552 456M600 552L552 504L504 456L504 408L504 360M600 360L552 312M600 408L552 360M600 1032L600 984L600 936L600 888L600 840L600 792L600 744L600 696L600 648L600 600L600 552L600 504L600 456L600 408L600 360L600 312L600 264" stroke="rgba(162, 123, 92, 1)" stroke-width="8"></path><path d="M588 264 a12 12 0 1 0 24 0 a12 12 0 1 0 -24 0zM540 456 a12 12 0 1 0 24 0 a12 12 0 1 0 -24 0zM492 360 a12 12 0 1 0 24 0 a12 12 0 1 0 -24 0zM540 312 a12 12 0 1 0 24 0 a12 12 0 1 0 -24 0zM540 360 a12 12 0 1 0 24 0 a12 12 0 1 0 -24 0z" fill="rgba(162, 123, 92, 1)"></path><path d="M936 936L888 888L888 840L888 792L888 744M936 648L888 600L888 552L936 504L936 456M936 696L888 648L840 600M888 1032L936 984L936 936L936 888L936 840L936 792L936 744L936 696L936 648L936 600" stroke="rgba(162, 123, 92, 1)" stroke-width="8"></path><path d="M924 600 a12 12 0 1 0 24 0 a12 12 0 1 0 -24 0zM876 744 a12 12 0 1 0 24 0 a12 12 0 1 0 -24 0zM924 456 a12 12 0 1 0 24 0 a12 12 0 1 0 -24 0zM828 600 a12 12 0 1 0 24 0 a12 12 0 1 0 -24 0z" fill="rgba(162, 123, 92, 1)"></path><path d="M552 696L504 648L504 600L504 552M552 744L504 696M552 792L504 744M552 1032L552 984L552 936L552 888L552 840L552 792L552 744L552 696L552 648L552 600" stroke="rgba(63, 78, 79, 1)" stroke-width="8"></path><path d="M540 600 a12 12 0 1 0 24 0 a12 12 0 1 0 -24 0zM492 552 a12 12 0 1 0 24 0 a12 12 0 1 0 -24 0zM492 696 a12 12 0 1 0 24 0 a12 12 0 1 0 -24 0zM492 744 a12 12 0 1 0 24 0 a12 12 0 1 0 -24 0z" fill="rgba(63, 78, 79, 1)"></path><path d="M456 456L408 408L408 360M504 840L504 792M456 696L408 648M504 1032L504 984L504 936L504 888L504 840L456 792L456 744L456 696L456 648L456 600L456 552L456 504L456 456L456 408L456 360" stroke="rgba(162, 123, 92, 1)" stroke-width="8"></path><path d="M444 360 a12 12 0 1 0 24 0 a12 12 0 1 0 -24 0zM396 360 a12 12 0 1 0 24 0 a12 12 0 1 0 -24 0zM492 792 a12 12 0 1 0 24 0 a12 12 0 1 0 -24 0zM396 648 a12 12 0 1 0 24 0 a12 12 0 1 0 -24 0z" fill="rgba(162, 123, 92, 1)"></path><path d="M984 312L936 264L888 216L888 168L888 120M984 456L1032 408L1032 360L1032 312M984 600L1032 552L1032 504L1032 456L1080 408M984 360L936 312L888 264L840 216M984 1032L984 984L984 936L984 888L984 840L984 792L984 744L984 696L984 648L984 600L984 552L984 504L984 456L984 408L984 360L984 312L984 264L984 216" stroke="rgba(162, 123, 92, 1)" stroke-width="8"></path><path d="M972 216 a12 12 0 1 0 24 0 a12 12 0 1 0 -24 0zM876 120 a12 12 0 1 0 24 0 a12 12 0 1 0 -24 0zM1020 312 a12 12 0 1 0 24 0 a12 12 0 1 0 -24 0zM1068 408 a12 12 0 1 0 24 0 a12 12 0 1 0 -24 0zM828 216 a12 12 0 1 0 24 0 a12 12 0 1 0 -24 0z" fill="rgba(162, 123, 92, 1)"></path><path d="M408 792L408 744L408 696M360 600L312 552L312 504L312 456M360 360L312 312L312 264L312 216L312 168M360 264L408 216L408 168M456 1032L456 984L456 936L456 888L456 840L408 792L360 744L360 696L360 648L360 600L360 552L360 504L360 456L360 408L360 360L360 312L360 264L360 216" stroke="rgba(162, 123, 92, 1)" stroke-width="8"></path><path d="M348 216 a12 12 0 1 0 24 0 a12 12 0 1 0 -24 0zM396 696 a12 12 0 1 0 24 0 a12 12 0 1 0 -24 0zM300 456 a12 12 0 1 0 24 0 a12 12 0 1 0 -24 0zM300 168 a12 12 0 1 0 24 0 a12 12 0 1 0 -24 0zM396 168 a12 12 0 1 0 24 0 a12 12 0 1 0 -24 0z" fill="rgba(162, 123, 92, 1)"></path><path d="M1080 552L1128 504L1128 456M1032 840L1080 792M1032 936L1080 888L1080 840M1032 1032L1032 984L1032 936L1032 888L1032 840L1032 792L1032 744L1032 696L1080 648L1080 600L1080 552L1080 504" stroke="rgba(63, 78, 79, 1)" stroke-width="8"></path><path d="M1068 504 a12 12 0 1 0 24 0 a12 12 0 1 0 -24 0zM1116 456 a12 12 0 1 0 24 0 a12 12 0 1 0 -24 0zM1068 792 a12 12 0 1 0 24 0 a12 12 0 1 0 -24 0zM1068 840 a12 12 0 1 0 24 0 a12 12 0 1 0 -24 0z" fill="rgba(63, 78, 79, 1)"></path><path d="M312 696L264 648L264 600M408 984L360 936L360 888M312 744L264 696L216 648L216 600M408 1032L408 984L408 936L408 888L408 840L360 792L312 744L312 696L312 648" stroke="rgba(162, 123, 92, 1)" stroke-width="8"></path><path d="M300 648 a12 12 0 1 0 24 0 a12 12 0 1 0 -24 0zM252 600 a12 12 0 1 0 24 0 a12 12 0 1 0 -24 0zM348 888 a12 12 0 1 0 24 0 a12 12 0 1 0 -24 0zM204 600 a12 12 0 1 0 24 0 a12 12 0 1 0 -24 0z" fill="rgba(162, 123, 92, 1)"></path></g></g><defs><mask id="SvgjsMask1186"><rect width="1440" height="1000" fill="#ffffff"></rect></mask><mask id="SvgjsMask1187"><rect width="1440" height="1000" fill="white"></rect><path d="M738 792 a6 6 0 1 0 12 0 a6 6 0 1 0 -12 0z" fill="black"></path><path d="M738 456 a6 6 0 1 0 12 0 a6 6 0 1 0 -12 0zM690 408 a6 6 0 1 0 12 0 a6 6 0 1 0 -12 0zM738 552 a6 6 0 1 0 12 0 a6 6 0 1 0 -12 0zM690 504 a6 6 0 1 0 12 0 a6 6 0 1 0 -12 0z" fill="black"></path><path d="M786 504 a6 6 0 1 0 12 0 a6 6 0 1 0 -12 0zM834 504 a6 6 0 1 0 12 0 a6 6 0 1 0 -12 0zM834 792 a6 6 0 1 0 12 0 a6 6 0 1 0 -12 0zM882 408 a6 6 0 1 0 12 0 a6 6 0 1 0 -12 0z" fill="black"></path><path d="M642 264 a6 6 0 1 0 12 0 a6 6 0 1 0 -12 0zM738 120 a6 6 0 1 0 12 0 a6 6 0 1 0 -12 0z" fill="black"></path><path d="M594 264 a6 6 0 1 0 12 0 a6 6 0 1 0 -12 0zM546 456 a6 6 0 1 0 12 0 a6 6 0 1 0 -12 0zM498 360 a6 6 0 1 0 12 0 a6 6 0 1 0 -12 0zM546 312 a6 6 0 1 0 12 0 a6 6 0 1 0 -12 0zM546 360 a6 6 0 1 0 12 0 a6 6 0 1 0 -12 0z" fill="black"></path><path d="M930 600 a6 6 0 1 0 12 0 a6 6 0 1 0 -12 0zM882 744 a6 6 0 1 0 12 0 a6 6 0 1 0 -12 0zM930 456 a6 6 0 1 0 12 0 a6 6 0 1 0 -12 0zM834 600 a6 6 0 1 0 12 0 a6 6 0 1 0 -12 0z" fill="black"></path><path d="M546 600 a6 6 0 1 0 12 0 a6 6 0 1 0 -12 0zM498 552 a6 6 0 1 0 12 0 a6 6 0 1 0 -12 0zM498 696 a6 6 0 1 0 12 0 a6 6 0 1 0 -12 0zM498 744 a6 6 0 1 0 12 0 a6 6 0 1 0 -12 0z" fill="black"></path><path d="M450 360 a6 6 0 1 0 12 0 a6 6 0 1 0 -12 0zM402 360 a6 6 0 1 0 12 0 a6 6 0 1 0 -12 0zM498 792 a6 6 0 1 0 12 0 a6 6 0 1 0 -12 0zM402 648 a6 6 0 1 0 12 0 a6 6 0 1 0 -12 0z" fill="black"></path><path d="M978 216 a6 6 0 1 0 12 0 a6 6 0 1 0 -12 0zM882 120 a6 6 0 1 0 12 0 a6 6 0 1 0 -12 0zM1026 312 a6 6 0 1 0 12 0 a6 6 0 1 0 -12 0zM1074 408 a6 6 0 1 0 12 0 a6 6 0 1 0 -12 0zM834 216 a6 6 0 1 0 12 0 a6 6 0 1 0 -12 0z" fill="black"></path><path d="M354 216 a6 6 0 1 0 12 0 a6 6 0 1 0 -12 0zM402 696 a6 6 0 1 0 12 0 a6 6 0 1 0 -12 0zM306 456 a6 6 0 1 0 12 0 a6 6 0 1 0 -12 0zM306 168 a6 6 0 1 0 12 0 a6 6 0 1 0 -12 0zM402 168 a6 6 0 1 0 12 0 a6 6 0 1 0 -12 0z" fill="black"></path><path d="M1074 504 a6 6 0 1 0 12 0 a6 6 0 1 0 -12 0zM1122 456 a6 6 0 1 0 12 0 a6 6 0 1 0 -12 0zM1074 792 a6 6 0 1 0 12 0 a6 6 0 1 0 -12 0zM1074 840 a6 6 0 1 0 12 0 a6 6 0 1 0 -12 0z" fill="black"></path><path d="M306 648 a6 6 0 1 0 12 0 a6 6 0 1 0 -12 0zM258 600 a6 6 0 1 0 12 0 a6 6 0 1 0 -12 0zM354 888 a6 6 0 1 0 12 0 a6 6 0 1 0 -12 0zM210 600 a6 6 0 1 0 12 0 a6 6 0 1 0 -12 0z" fill="black"></path></mask></defs></svg>